<svg width="86" height="29" viewBox="0 0 86 29" fill="none" xmlns="http://www.w3.org/2000/svg">
<path d="M0.926492 2.54545H8.54545L15.0085 18.3054H15.3068L21.7699 2.54545H29.3889V28H23.3981V12.3643H23.1868L17.0717 27.8384H13.2436L7.12855 12.2773H6.91726V28H0.926492V2.54545ZM33.2263 28V8.90909H39.3041V28H33.2263ZM36.2714 6.6843C35.4179 6.6843 34.6846 6.40258 34.0715 5.83913C33.4583 5.2674 33.1517 4.57966 33.1517 3.77592C33.1517 2.98047 33.4583 2.30102 34.0715 1.73757C34.6846 1.16584 35.4179 0.87997 36.2714 0.87997C37.1331 0.87997 37.8664 1.16584 38.4713 1.73757C39.0845 2.30102 39.3911 2.98047 39.3911 3.77592C39.3911 4.57966 39.0845 5.2674 38.4713 5.83913C37.8664 6.40258 37.1331 6.6843 36.2714 6.6843ZM43.1726 28V8.90909H49.0763V12.3892H49.2752C49.6232 11.1297 50.1908 10.1934 50.978 9.58025C51.7652 8.95881 52.6808 8.64808 53.7248 8.64808C54.0065 8.64808 54.2965 8.6688 54.5948 8.71023C54.8931 8.74337 55.1707 8.79723 55.4276 8.8718V14.1541C55.1375 14.0547 54.7564 13.976 54.2841 13.918C53.8201 13.86 53.4058 13.831 53.0412 13.831C52.3203 13.831 51.6699 13.9925 51.0898 14.3157C50.5181 14.6306 50.0665 15.0739 49.7351 15.6456C49.4119 16.209 49.2504 16.8719 49.2504 17.6342V28H43.1726ZM65.8244 28.3604C63.8192 28.3604 62.0957 27.9503 60.6539 27.13C59.2205 26.3014 58.1143 25.1496 57.3354 23.6747C56.5648 22.1915 56.1795 20.4722 56.1795 18.5167C56.1795 16.5529 56.5648 14.8336 57.3354 13.3587C58.1143 11.8755 59.2205 10.7237 60.6539 9.90341C62.0957 9.07481 63.8192 8.66051 65.8244 8.66051C67.8296 8.66051 69.5489 9.07481 70.9824 9.90341C72.4242 10.7237 73.5304 11.8755 74.301 13.3587C75.0798 14.8336 75.4693 16.5529 75.4693 18.5167C75.4693 20.4722 75.0798 22.1915 74.301 23.6747C73.5304 25.1496 72.4242 26.3014 70.9824 27.13C69.5489 27.9503 67.8296 28.3604 65.8244 28.3604ZM65.8617 23.7741C66.5909 23.7741 67.2082 23.5504 67.7136 23.103C68.219 22.6555 68.6043 22.0341 68.8695 21.2386C69.1429 20.4432 69.2797 19.5234 69.2797 18.4794C69.2797 17.4188 69.1429 16.4908 68.8695 15.6953C68.6043 14.8999 68.219 14.2784 67.7136 13.831C67.2082 13.3835 66.5909 13.1598 65.8617 13.1598C65.1077 13.1598 64.4696 13.3835 63.9476 13.831C63.4339 14.2784 63.0403 14.8999 62.7669 15.6953C62.5017 16.4908 62.3691 17.4188 62.3691 18.4794C62.3691 19.5234 62.5017 20.4432 62.7669 21.2386C63.0403 22.0341 63.4339 22.6555 63.9476 23.103C64.4696 23.5504 65.1077 23.7741 65.8617 23.7741ZM82.0007 28.3604C81.1058 28.3604 80.3394 28.0456 79.7013 27.4158C79.0716 26.7861 78.7609 26.0238 78.7692 25.1289C78.7609 24.2506 79.0716 23.5007 79.7013 22.8793C80.3394 22.2495 81.1058 21.9347 82.0007 21.9347C82.8459 21.9347 83.5916 22.2495 84.2379 22.8793C84.8925 23.5007 85.224 24.2506 85.2322 25.1289C85.224 25.7255 85.0665 26.2682 84.7599 26.7571C84.4616 27.246 84.0681 27.6354 83.5792 27.9254C83.0986 28.2154 82.5724 28.3604 82.0007 28.3604Z" fill="white"/>
</svg>
