<svg width="100" height="100" viewBox="0 0 100 100" fill="none" xmlns="http://www.w3.org/2000/svg">
<g filter="url(#filter0_f_234_778)">
<path d="M66.2833 41.2527C65.432 42.104 63.9845 41.7804 63.5767 40.6477L62.7977 38.4838C60.1883 31.2354 54.4814 25.5285 47.2328 22.919L45.0691 22.1401C43.9364 21.7323 43.6128 20.2847 44.4641 19.4335C44.9139 18.9836 45.5831 18.834 46.1817 19.0495L47.4356 19.501C56.1816 22.6495 63.0672 29.5352 66.2158 38.2811L66.6672 39.5351C66.8827 40.1336 66.7331 40.8029 66.2833 41.2527Z" fill="url(#paint0_linear_234_778)"/>
</g>
<g filter="url(#filter1_f_234_778)">
<path d="M59.8571 42.5447C59.0066 43.3951 57.5612 43.0776 57.1454 41.949L56.7379 40.8429C54.711 35.3419 50.3747 31.0054 44.8737 28.9787L43.7674 28.5712C42.6388 28.1555 42.3213 26.7099 43.1718 25.8595C43.6265 25.4049 44.3038 25.2561 44.9069 25.4784L45.6566 25.7545C52.2897 28.1983 57.5182 33.4269 59.9621 40.06L60.2382 40.8097C60.4604 41.4128 60.3116 42.0901 59.8571 42.5447Z" fill="url(#paint1_linear_234_778)"/>
</g>
<g filter="url(#filter2_f_234_778)">
<path d="M53.3655 43.9025C52.6188 44.6492 51.3411 44.2625 51.134 43.2268C50.2616 38.8648 46.8519 35.4551 42.4899 34.5828C41.4543 34.3756 41.0674 33.0979 41.8143 32.351L42.0625 32.1028C42.4197 31.7457 42.936 31.5915 43.4311 31.6906C48.748 32.754 52.9627 36.9687 54.0261 42.2856C54.125 42.7807 53.971 43.297 53.614 43.654L53.3655 43.9025Z" fill="url(#paint2_linear_234_778)"/>
</g>
<g filter="url(#filter3_f_234_778)">
<path d="M19.5315 23.8304L14.9482 28.4136L25.2207 37.0889L29.1202 34.0559C30.8438 32.7153 31.0026 30.1675 29.4585 28.6234L24.6654 23.8304C23.2477 22.4127 20.9491 22.4127 19.5315 23.8304Z" fill="url(#paint3_linear_234_778)"/>
<path d="M58.5864 72.052L63.1697 67.4687C64.5874 66.0511 64.5874 63.7525 63.1697 62.3348L58.3766 57.5417C56.8325 55.9976 54.2847 56.1564 52.9441 57.88L49.9111 61.7795L58.5864 72.052Z" fill="url(#paint4_linear_234_778)"/>
</g>
<g filter="url(#filter4_ii_234_778)">
<path d="M58.5866 72.052C51.7909 78.8477 40.8759 79.1685 33.6929 72.7836L23.382 63.6183L14.2167 53.3074C7.83175 46.1244 8.1525 35.2094 14.9482 28.4136L19.5315 23.8304C20.9491 22.4127 23.2477 22.4127 24.6654 23.8304L29.4585 28.6234C31.0026 30.1675 30.8438 32.7153 29.1202 34.0559L25.2207 37.0889C22.8052 38.9677 22.4116 42.4672 24.3493 44.8355L26.6193 47.6099C30.4412 52.281 34.7193 56.5591 39.3904 60.381L42.1648 62.6509C44.533 64.5886 48.0326 64.195 49.9113 61.7795L52.9443 57.88C54.2849 56.1564 56.8327 55.9977 58.3768 57.5417L63.1699 62.3349C64.5876 63.7525 64.5876 66.0511 63.1699 67.4688L58.5866 72.052Z" fill="url(#paint5_linear_234_778)"/>
</g>
<defs>
<filter id="filter0_f_234_778" x="38.6491" y="13.6191" width="33.4484" height="33.4486" filterUnits="userSpaceOnUse" color-interpolation-filters="sRGB">
<feFlood flood-opacity="0" result="BackgroundImageFix"/>
<feBlend mode="normal" in="SourceGraphic" in2="BackgroundImageFix" result="shape"/>
<feGaussianBlur stdDeviation="2.66667" result="effect1_foregroundBlur_234_778"/>
</filter>
<filter id="filter1_f_234_778" x="37.3551" y="20.0434" width="28.318" height="28.3179" filterUnits="userSpaceOnUse" color-interpolation-filters="sRGB">
<feFlood flood-opacity="0" result="BackgroundImageFix"/>
<feBlend mode="normal" in="SourceGraphic" in2="BackgroundImageFix" result="shape"/>
<feGaussianBlur stdDeviation="2.66667" result="effect1_foregroundBlur_234_778"/>
</filter>
<filter id="filter2_f_234_778" x="36.0924" y="26.3278" width="23.2965" height="23.2964" filterUnits="userSpaceOnUse" color-interpolation-filters="sRGB">
<feFlood flood-opacity="0" result="BackgroundImageFix"/>
<feBlend mode="normal" in="SourceGraphic" in2="BackgroundImageFix" result="shape"/>
<feGaussianBlur stdDeviation="2.66667" result="effect1_foregroundBlur_234_778"/>
</filter>
<filter id="filter3_f_234_778" x="9.61491" y="17.4338" width="59.9513" height="59.9516" filterUnits="userSpaceOnUse" color-interpolation-filters="sRGB">
<feFlood flood-opacity="0" result="BackgroundImageFix"/>
<feBlend mode="normal" in="SourceGraphic" in2="BackgroundImageFix" result="shape"/>
<feGaussianBlur stdDeviation="2.66667" result="effect1_foregroundBlur_234_778"/>
</filter>
<filter id="filter4_ii_234_778" x="4.2985" y="17.4338" width="65.2682" height="65.268" filterUnits="userSpaceOnUse" color-interpolation-filters="sRGB">
<feFlood flood-opacity="0" result="BackgroundImageFix"/>
<feBlend mode="normal" in="SourceGraphic" in2="BackgroundImageFix" result="shape"/>
<feColorMatrix in="SourceAlpha" type="matrix" values="0 0 0 0 0 0 0 0 0 0 0 0 0 0 0 0 0 0 127 0" result="hardAlpha"/>
<feOffset dx="5.33333" dy="5.33333"/>
<feGaussianBlur stdDeviation="5.33333"/>
<feComposite in2="hardAlpha" operator="arithmetic" k2="-1" k3="1"/>
<feColorMatrix type="matrix" values="0 0 0 0 0.895833 0 0 0 0 0.895833 0 0 0 0 0.895833 0 0 0 0.5 0"/>
<feBlend mode="normal" in2="shape" result="effect1_innerShadow_234_778"/>
<feColorMatrix in="SourceAlpha" type="matrix" values="0 0 0 0 0 0 0 0 0 0 0 0 0 0 0 0 0 0 127 0" result="hardAlpha"/>
<feOffset dx="-5.33333" dy="-5.33333"/>
<feGaussianBlur stdDeviation="5.33333"/>
<feComposite in2="hardAlpha" operator="arithmetic" k2="-1" k3="1"/>
<feColorMatrix type="matrix" values="0 0 0 0 0.894118 0 0 0 0 0.894118 0 0 0 0 0.894118 0 0 0 0.3 0"/>
<feBlend mode="normal" in2="effect1_innerShadow_234_778" result="effect2_innerShadow_234_778"/>
</filter>
<linearGradient id="paint0_linear_234_778" x1="42.2673" y1="21.6297" x2="56.9767" y2="12.0844" gradientUnits="userSpaceOnUse">
<stop stop-color="#FF9F1C" stop-opacity="0"/>
<stop offset="1" stop-color="#FFBF69" stop-opacity="0.7"/>
</linearGradient>
<linearGradient id="paint1_linear_234_778" x1="41.0454" y1="27.9859" x2="53.3954" y2="20.2875" gradientUnits="userSpaceOnUse">
<stop stop-color="#FF9F1C" stop-opacity="0"/>
<stop offset="1" stop-color="#FFBF69" stop-opacity="0.7"/>
</linearGradient>
<linearGradient id="paint2_linear_234_778" x1="39.7627" y1="34.4031" x2="52.4424" y2="28.089" gradientUnits="userSpaceOnUse">
<stop stop-color="#FF9F1C" stop-opacity="0"/>
<stop offset="1" stop-color="#FFBF69" stop-opacity="0.7"/>
</linearGradient>
<linearGradient id="paint3_linear_234_778" x1="36.7674" y1="50.2328" x2="43.9174" y2="43.0828" gradientUnits="userSpaceOnUse">
<stop stop-color="#FF9F1C"/>
<stop offset="1" stop-color="#957851"/>
</linearGradient>
<linearGradient id="paint4_linear_234_778" x1="36.7672" y1="50.2328" x2="43.9172" y2="43.0828" gradientUnits="userSpaceOnUse">
<stop stop-color="#FF9F1C"/>
<stop offset="1" stop-color="#957851"/>
</linearGradient>
<linearGradient id="paint5_linear_234_778" x1="0.586171" y1="42.7766" x2="40.7518" y2="20.3734" gradientUnits="userSpaceOnUse">
<stop stop-color="#FF9F1C" stop-opacity="0"/>
<stop offset="1" stop-color="#FFBF69" stop-opacity="0.7"/>
</linearGradient>
</defs>
</svg>
