<svg width="134" height="135" viewBox="0 0 134 135" fill="none" xmlns="http://www.w3.org/2000/svg">
<g clip-path="url(#clip0_231_16991)">
<g filter="url(#filter0_f_231_16991)">
<path fill-rule="evenodd" clip-rule="evenodd" d="M76.2277 18.0963C74.5449 21.7274 74.5449 27.1446 74.5449 36.0307C74.5449 47.4123 74.5449 53.1031 78.0808 56.639C81.6165 60.175 87.3073 60.175 98.6892 60.175C107.575 60.175 112.992 60.175 116.623 58.4921C118.306 54.861 118.306 49.4438 118.306 40.5576C118.306 29.176 118.306 23.4852 114.77 19.9494C111.234 16.4136 105.544 16.4136 94.162 16.4136C85.2761 16.4136 79.8586 16.4136 76.2277 18.0963Z" fill="url(#paint0_linear_231_16991)"/>
</g>
<g filter="url(#filter1_ii_231_16991)">
<path d="M111.667 11.8866H85.7126C79.5454 11.8866 74.5459 16.8861 74.5459 23.0533V49.0074C74.5459 55.1746 79.5454 60.1741 85.7126 60.1741H111.667C117.834 60.1741 122.833 55.1746 122.833 49.0074V23.0533C122.833 16.8861 117.834 11.8866 111.667 11.8866Z" fill="url(#paint1_linear_231_16991)"/>
</g>
<g filter="url(#filter2_ii_231_16991)">
<path fill-rule="evenodd" clip-rule="evenodd" d="M76.2278 18.0963C74.545 21.7274 74.545 27.1446 74.545 36.0306C74.545 47.4122 74.545 53.1031 78.081 56.639C81.6166 60.1749 87.3074 60.1749 98.689 60.1749C107.575 60.1749 112.992 60.1749 116.624 58.4921C116.151 59.5119 115.546 60.3907 114.77 61.166C111.235 64.7019 105.544 64.7019 94.1621 64.7019C82.7804 64.7019 77.0896 64.7019 73.5537 61.166C70.0181 57.6303 70.0181 51.9395 70.0181 40.5579C70.0181 29.176 70.0181 23.4853 73.5537 19.9494C74.3292 19.1741 75.2081 18.5689 76.2278 18.0963Z" fill="url(#paint2_linear_231_16991)"/>
</g>
<g filter="url(#filter3_f_231_16991)">
<path fill-rule="evenodd" clip-rule="evenodd" d="M57.7723 18.0963C59.4551 21.7274 59.4551 27.1446 59.4551 36.0307C59.4551 47.4123 59.4551 53.1031 55.9192 56.639C52.3836 60.175 46.6927 60.175 35.3108 60.175C26.4249 60.175 21.0076 60.175 17.3766 58.4921C15.6938 54.861 15.6938 49.4438 15.6938 40.5576C15.6938 29.176 15.6938 23.4852 19.2297 19.9494C22.7655 16.4136 28.4565 16.4136 39.8381 16.4136C48.724 16.4136 54.1415 16.4136 57.7723 18.0963Z" fill="url(#paint3_linear_231_16991)"/>
</g>
<g filter="url(#filter4_ii_231_16991)">
<path d="M22.3333 11.8866H48.2874C54.4546 11.8866 59.4541 16.8861 59.4541 23.0533V49.0074C59.4541 55.1746 54.4546 60.1741 48.2874 60.1741H22.3333C16.1661 60.1741 11.1666 55.1746 11.1666 49.0074V23.0533C11.1666 16.8861 16.1661 11.8866 22.3333 11.8866Z" fill="url(#paint4_linear_231_16991)"/>
</g>
<g filter="url(#filter5_ii_231_16991)">
<path fill-rule="evenodd" clip-rule="evenodd" d="M57.7722 18.0963C59.455 21.7274 59.455 27.1446 59.455 36.0306C59.455 47.4122 59.455 53.1031 55.9191 56.639C52.3835 60.1749 46.6926 60.1749 35.311 60.1749C26.4248 60.1749 21.0076 60.1749 17.3765 58.4921C17.849 59.5119 18.4543 60.3907 19.2296 61.166C22.7654 64.7019 28.4564 64.7019 39.838 64.7019C51.2196 64.7019 56.9104 64.7019 60.4464 61.166C63.982 57.6303 63.982 51.9395 63.982 40.5579C63.982 29.176 63.982 23.4853 60.4464 19.9494C59.6708 19.1741 58.792 18.5689 57.7722 18.0963Z" fill="url(#paint5_linear_231_16991)"/>
</g>
<g filter="url(#filter6_f_231_16991)">
<path fill-rule="evenodd" clip-rule="evenodd" d="M57.7723 117.344C59.4551 113.713 59.4551 108.295 59.4551 99.4093C59.4551 88.0277 59.4551 82.3369 55.9192 78.8009C52.3836 75.265 46.6927 75.265 35.3108 75.265C26.4249 75.265 21.0076 75.265 17.3766 76.9478C15.6938 80.579 15.6938 85.9962 15.6938 94.8823C15.6938 106.264 15.6938 111.955 19.2297 115.491C22.7655 119.026 28.4565 119.026 39.8381 119.026C48.724 119.026 54.1415 119.026 57.7723 117.344Z" fill="url(#paint6_linear_231_16991)"/>
</g>
<g filter="url(#filter7_ii_231_16991)">
<path d="M22.3333 123.553H48.2874C54.4546 123.553 59.4541 118.554 59.4541 112.387L59.4541 86.4325C59.4541 80.2654 54.4546 75.2659 48.2874 75.2659H22.3333C16.1661 75.2659 11.1666 80.2654 11.1666 86.4325L11.1666 112.387C11.1666 118.554 16.1661 123.553 22.3333 123.553Z" fill="url(#paint7_linear_231_16991)"/>
</g>
<g filter="url(#filter8_ii_231_16991)">
<path fill-rule="evenodd" clip-rule="evenodd" d="M57.7722 117.344C59.455 113.712 59.455 108.295 59.455 99.4093C59.455 88.0277 59.455 82.3369 55.9191 78.8009C52.3835 75.265 46.6926 75.265 35.311 75.265C26.4248 75.265 21.0076 75.265 17.3765 76.9478C17.849 75.928 18.4543 75.0492 19.2296 74.274C22.7654 70.738 28.4564 70.738 39.838 70.738C51.2196 70.738 56.9104 70.738 60.4464 74.274C63.982 77.8096 63.982 83.5004 63.982 94.882C63.982 106.264 63.982 111.955 60.4464 115.49C59.6708 116.266 58.792 116.871 57.7722 117.344Z" fill="url(#paint8_linear_231_16991)"/>
</g>
<g filter="url(#filter9_f_231_16991)">
<path fill-rule="evenodd" clip-rule="evenodd" d="M76.2277 117.344C74.5449 113.713 74.5449 108.295 74.5449 99.4093C74.5449 88.0277 74.5449 82.3369 78.0808 78.8009C81.6165 75.265 87.3073 75.265 98.6892 75.265C107.575 75.265 112.992 75.265 116.623 76.9478C118.306 80.579 118.306 85.9962 118.306 94.8823C118.306 106.264 118.306 111.955 114.77 115.491C111.234 119.026 105.544 119.026 94.162 119.026C85.2761 119.026 79.8586 119.026 76.2277 117.344Z" fill="url(#paint9_linear_231_16991)"/>
</g>
<g filter="url(#filter10_ii_231_16991)">
<path d="M111.667 123.553H85.7126C79.5454 123.553 74.5459 118.554 74.5459 112.387V86.4326C74.5459 80.2654 79.5454 75.2659 85.7126 75.2659H111.667C117.834 75.2659 122.833 80.2654 122.833 86.4326V112.387C122.833 118.554 117.834 123.553 111.667 123.553Z" fill="url(#paint10_linear_231_16991)"/>
</g>
<g filter="url(#filter11_ii_231_16991)">
<path fill-rule="evenodd" clip-rule="evenodd" d="M76.2278 117.344C74.545 113.712 74.545 108.295 74.545 99.4093C74.545 88.0277 74.545 82.3369 78.081 78.8009C81.6166 75.265 87.3074 75.265 98.689 75.265C107.575 75.265 112.992 75.265 116.624 76.9478C116.151 75.928 115.546 75.0492 114.77 74.274C111.235 70.738 105.544 70.738 94.1621 70.738C82.7804 70.738 77.0896 70.738 73.5537 74.274C70.0181 77.8096 70.0181 83.5004 70.0181 94.882C70.0181 106.264 70.0181 111.955 73.5537 115.49C74.3292 116.266 75.2081 116.871 76.2278 117.344Z" fill="url(#paint11_linear_231_16991)"/>
</g>
</g>
<defs>
<filter id="filter0_f_231_16991" x="69.2116" y="11.0802" width="54.4279" height="54.428" filterUnits="userSpaceOnUse" color-interpolation-filters="sRGB">
<feFlood flood-opacity="0" result="BackgroundImageFix"/>
<feBlend mode="normal" in="SourceGraphic" in2="BackgroundImageFix" result="shape"/>
<feGaussianBlur stdDeviation="2.66667" result="effect1_foregroundBlur_231_16991"/>
</filter>
<filter id="filter1_ii_231_16991" x="63.8792" y="1.21993" width="69.6209" height="69.6208" filterUnits="userSpaceOnUse" color-interpolation-filters="sRGB">
<feFlood flood-opacity="0" result="BackgroundImageFix"/>
<feBlend mode="normal" in="SourceGraphic" in2="BackgroundImageFix" result="shape"/>
<feColorMatrix in="SourceAlpha" type="matrix" values="0 0 0 0 0 0 0 0 0 0 0 0 0 0 0 0 0 0 127 0" result="hardAlpha"/>
<feOffset dx="10.6667" dy="10.6667"/>
<feGaussianBlur stdDeviation="10.6667"/>
<feComposite in2="hardAlpha" operator="arithmetic" k2="-1" k3="1"/>
<feColorMatrix type="matrix" values="0 0 0 0 0.895833 0 0 0 0 0.895833 0 0 0 0 0.895833 0 0 0 0.5 0"/>
<feBlend mode="normal" in2="shape" result="effect1_innerShadow_231_16991"/>
<feColorMatrix in="SourceAlpha" type="matrix" values="0 0 0 0 0 0 0 0 0 0 0 0 0 0 0 0 0 0 127 0" result="hardAlpha"/>
<feOffset dx="-10.6667" dy="-10.6667"/>
<feGaussianBlur stdDeviation="10.6667"/>
<feComposite in2="hardAlpha" operator="arithmetic" k2="-1" k3="1"/>
<feColorMatrix type="matrix" values="0 0 0 0 0.894118 0 0 0 0 0.894118 0 0 0 0 0.894118 0 0 0 0.3 0"/>
<feBlend mode="normal" in2="effect1_innerShadow_231_16991" result="effect2_innerShadow_231_16991"/>
</filter>
<filter id="filter2_ii_231_16991" x="64.6847" y="12.763" width="57.2721" height="57.2723" filterUnits="userSpaceOnUse" color-interpolation-filters="sRGB">
<feFlood flood-opacity="0" result="BackgroundImageFix"/>
<feBlend mode="normal" in="SourceGraphic" in2="BackgroundImageFix" result="shape"/>
<feColorMatrix in="SourceAlpha" type="matrix" values="0 0 0 0 0 0 0 0 0 0 0 0 0 0 0 0 0 0 127 0" result="hardAlpha"/>
<feOffset dx="5.33333" dy="5.33333"/>
<feGaussianBlur stdDeviation="5.33333"/>
<feComposite in2="hardAlpha" operator="arithmetic" k2="-1" k3="1"/>
<feColorMatrix type="matrix" values="0 0 0 0 0.895833 0 0 0 0 0.895833 0 0 0 0 0.895833 0 0 0 0.5 0"/>
<feBlend mode="normal" in2="shape" result="effect1_innerShadow_231_16991"/>
<feColorMatrix in="SourceAlpha" type="matrix" values="0 0 0 0 0 0 0 0 0 0 0 0 0 0 0 0 0 0 127 0" result="hardAlpha"/>
<feOffset dx="-5.33333" dy="-5.33333"/>
<feGaussianBlur stdDeviation="5.33333"/>
<feComposite in2="hardAlpha" operator="arithmetic" k2="-1" k3="1"/>
<feColorMatrix type="matrix" values="0 0 0 0 0.894118 0 0 0 0 0.894118 0 0 0 0 0.894118 0 0 0 0.3 0"/>
<feBlend mode="normal" in2="effect1_innerShadow_231_16991" result="effect2_innerShadow_231_16991"/>
</filter>
<filter id="filter3_f_231_16991" x="10.3605" y="11.0802" width="54.4279" height="54.428" filterUnits="userSpaceOnUse" color-interpolation-filters="sRGB">
<feFlood flood-opacity="0" result="BackgroundImageFix"/>
<feBlend mode="normal" in="SourceGraphic" in2="BackgroundImageFix" result="shape"/>
<feGaussianBlur stdDeviation="2.66667" result="effect1_foregroundBlur_231_16991"/>
</filter>
<filter id="filter4_ii_231_16991" x="0.499837" y="1.21993" width="69.6209" height="69.6208" filterUnits="userSpaceOnUse" color-interpolation-filters="sRGB">
<feFlood flood-opacity="0" result="BackgroundImageFix"/>
<feBlend mode="normal" in="SourceGraphic" in2="BackgroundImageFix" result="shape"/>
<feColorMatrix in="SourceAlpha" type="matrix" values="0 0 0 0 0 0 0 0 0 0 0 0 0 0 0 0 0 0 127 0" result="hardAlpha"/>
<feOffset dx="10.6667" dy="10.6667"/>
<feGaussianBlur stdDeviation="10.6667"/>
<feComposite in2="hardAlpha" operator="arithmetic" k2="-1" k3="1"/>
<feColorMatrix type="matrix" values="0 0 0 0 0.895833 0 0 0 0 0.895833 0 0 0 0 0.895833 0 0 0 0.5 0"/>
<feBlend mode="normal" in2="shape" result="effect1_innerShadow_231_16991"/>
<feColorMatrix in="SourceAlpha" type="matrix" values="0 0 0 0 0 0 0 0 0 0 0 0 0 0 0 0 0 0 127 0" result="hardAlpha"/>
<feOffset dx="-10.6667" dy="-10.6667"/>
<feGaussianBlur stdDeviation="10.6667"/>
<feComposite in2="hardAlpha" operator="arithmetic" k2="-1" k3="1"/>
<feColorMatrix type="matrix" values="0 0 0 0 0.894118 0 0 0 0 0.894118 0 0 0 0 0.894118 0 0 0 0.3 0"/>
<feBlend mode="normal" in2="effect1_innerShadow_231_16991" result="effect2_innerShadow_231_16991"/>
</filter>
<filter id="filter5_ii_231_16991" x="12.0431" y="12.763" width="57.2721" height="57.2723" filterUnits="userSpaceOnUse" color-interpolation-filters="sRGB">
<feFlood flood-opacity="0" result="BackgroundImageFix"/>
<feBlend mode="normal" in="SourceGraphic" in2="BackgroundImageFix" result="shape"/>
<feColorMatrix in="SourceAlpha" type="matrix" values="0 0 0 0 0 0 0 0 0 0 0 0 0 0 0 0 0 0 127 0" result="hardAlpha"/>
<feOffset dx="5.33333" dy="5.33333"/>
<feGaussianBlur stdDeviation="5.33333"/>
<feComposite in2="hardAlpha" operator="arithmetic" k2="-1" k3="1"/>
<feColorMatrix type="matrix" values="0 0 0 0 0.895833 0 0 0 0 0.895833 0 0 0 0 0.895833 0 0 0 0.5 0"/>
<feBlend mode="normal" in2="shape" result="effect1_innerShadow_231_16991"/>
<feColorMatrix in="SourceAlpha" type="matrix" values="0 0 0 0 0 0 0 0 0 0 0 0 0 0 0 0 0 0 127 0" result="hardAlpha"/>
<feOffset dx="-5.33333" dy="-5.33333"/>
<feGaussianBlur stdDeviation="5.33333"/>
<feComposite in2="hardAlpha" operator="arithmetic" k2="-1" k3="1"/>
<feColorMatrix type="matrix" values="0 0 0 0 0.894118 0 0 0 0 0.894118 0 0 0 0 0.894118 0 0 0 0.3 0"/>
<feBlend mode="normal" in2="effect1_innerShadow_231_16991" result="effect2_innerShadow_231_16991"/>
</filter>
<filter id="filter6_f_231_16991" x="10.3605" y="69.9317" width="54.4279" height="54.428" filterUnits="userSpaceOnUse" color-interpolation-filters="sRGB">
<feFlood flood-opacity="0" result="BackgroundImageFix"/>
<feBlend mode="normal" in="SourceGraphic" in2="BackgroundImageFix" result="shape"/>
<feGaussianBlur stdDeviation="2.66667" result="effect1_foregroundBlur_231_16991"/>
</filter>
<filter id="filter7_ii_231_16991" x="0.499837" y="64.5992" width="69.6209" height="69.6208" filterUnits="userSpaceOnUse" color-interpolation-filters="sRGB">
<feFlood flood-opacity="0" result="BackgroundImageFix"/>
<feBlend mode="normal" in="SourceGraphic" in2="BackgroundImageFix" result="shape"/>
<feColorMatrix in="SourceAlpha" type="matrix" values="0 0 0 0 0 0 0 0 0 0 0 0 0 0 0 0 0 0 127 0" result="hardAlpha"/>
<feOffset dx="10.6667" dy="10.6667"/>
<feGaussianBlur stdDeviation="10.6667"/>
<feComposite in2="hardAlpha" operator="arithmetic" k2="-1" k3="1"/>
<feColorMatrix type="matrix" values="0 0 0 0 0.895833 0 0 0 0 0.895833 0 0 0 0 0.895833 0 0 0 0.5 0"/>
<feBlend mode="normal" in2="shape" result="effect1_innerShadow_231_16991"/>
<feColorMatrix in="SourceAlpha" type="matrix" values="0 0 0 0 0 0 0 0 0 0 0 0 0 0 0 0 0 0 127 0" result="hardAlpha"/>
<feOffset dx="-10.6667" dy="-10.6667"/>
<feGaussianBlur stdDeviation="10.6667"/>
<feComposite in2="hardAlpha" operator="arithmetic" k2="-1" k3="1"/>
<feColorMatrix type="matrix" values="0 0 0 0 0.894118 0 0 0 0 0.894118 0 0 0 0 0.894118 0 0 0 0.3 0"/>
<feBlend mode="normal" in2="effect1_innerShadow_231_16991" result="effect2_innerShadow_231_16991"/>
</filter>
<filter id="filter8_ii_231_16991" x="12.0431" y="65.4047" width="57.2721" height="57.2721" filterUnits="userSpaceOnUse" color-interpolation-filters="sRGB">
<feFlood flood-opacity="0" result="BackgroundImageFix"/>
<feBlend mode="normal" in="SourceGraphic" in2="BackgroundImageFix" result="shape"/>
<feColorMatrix in="SourceAlpha" type="matrix" values="0 0 0 0 0 0 0 0 0 0 0 0 0 0 0 0 0 0 127 0" result="hardAlpha"/>
<feOffset dx="5.33333" dy="5.33333"/>
<feGaussianBlur stdDeviation="5.33333"/>
<feComposite in2="hardAlpha" operator="arithmetic" k2="-1" k3="1"/>
<feColorMatrix type="matrix" values="0 0 0 0 0.895833 0 0 0 0 0.895833 0 0 0 0 0.895833 0 0 0 0.5 0"/>
<feBlend mode="normal" in2="shape" result="effect1_innerShadow_231_16991"/>
<feColorMatrix in="SourceAlpha" type="matrix" values="0 0 0 0 0 0 0 0 0 0 0 0 0 0 0 0 0 0 127 0" result="hardAlpha"/>
<feOffset dx="-5.33333" dy="-5.33333"/>
<feGaussianBlur stdDeviation="5.33333"/>
<feComposite in2="hardAlpha" operator="arithmetic" k2="-1" k3="1"/>
<feColorMatrix type="matrix" values="0 0 0 0 0.894118 0 0 0 0 0.894118 0 0 0 0 0.894118 0 0 0 0.3 0"/>
<feBlend mode="normal" in2="effect1_innerShadow_231_16991" result="effect2_innerShadow_231_16991"/>
</filter>
<filter id="filter9_f_231_16991" x="69.2116" y="69.9317" width="54.4279" height="54.428" filterUnits="userSpaceOnUse" color-interpolation-filters="sRGB">
<feFlood flood-opacity="0" result="BackgroundImageFix"/>
<feBlend mode="normal" in="SourceGraphic" in2="BackgroundImageFix" result="shape"/>
<feGaussianBlur stdDeviation="2.66667" result="effect1_foregroundBlur_231_16991"/>
</filter>
<filter id="filter10_ii_231_16991" x="63.8792" y="64.5992" width="69.6209" height="69.6208" filterUnits="userSpaceOnUse" color-interpolation-filters="sRGB">
<feFlood flood-opacity="0" result="BackgroundImageFix"/>
<feBlend mode="normal" in="SourceGraphic" in2="BackgroundImageFix" result="shape"/>
<feColorMatrix in="SourceAlpha" type="matrix" values="0 0 0 0 0 0 0 0 0 0 0 0 0 0 0 0 0 0 127 0" result="hardAlpha"/>
<feOffset dx="10.6667" dy="10.6667"/>
<feGaussianBlur stdDeviation="10.6667"/>
<feComposite in2="hardAlpha" operator="arithmetic" k2="-1" k3="1"/>
<feColorMatrix type="matrix" values="0 0 0 0 0.895833 0 0 0 0 0.895833 0 0 0 0 0.895833 0 0 0 0.5 0"/>
<feBlend mode="normal" in2="shape" result="effect1_innerShadow_231_16991"/>
<feColorMatrix in="SourceAlpha" type="matrix" values="0 0 0 0 0 0 0 0 0 0 0 0 0 0 0 0 0 0 127 0" result="hardAlpha"/>
<feOffset dx="-10.6667" dy="-10.6667"/>
<feGaussianBlur stdDeviation="10.6667"/>
<feComposite in2="hardAlpha" operator="arithmetic" k2="-1" k3="1"/>
<feColorMatrix type="matrix" values="0 0 0 0 0.894118 0 0 0 0 0.894118 0 0 0 0 0.894118 0 0 0 0.3 0"/>
<feBlend mode="normal" in2="effect1_innerShadow_231_16991" result="effect2_innerShadow_231_16991"/>
</filter>
<filter id="filter11_ii_231_16991" x="64.6847" y="65.4047" width="57.2721" height="57.2721" filterUnits="userSpaceOnUse" color-interpolation-filters="sRGB">
<feFlood flood-opacity="0" result="BackgroundImageFix"/>
<feBlend mode="normal" in="SourceGraphic" in2="BackgroundImageFix" result="shape"/>
<feColorMatrix in="SourceAlpha" type="matrix" values="0 0 0 0 0 0 0 0 0 0 0 0 0 0 0 0 0 0 127 0" result="hardAlpha"/>
<feOffset dx="5.33333" dy="5.33333"/>
<feGaussianBlur stdDeviation="5.33333"/>
<feComposite in2="hardAlpha" operator="arithmetic" k2="-1" k3="1"/>
<feColorMatrix type="matrix" values="0 0 0 0 0.895833 0 0 0 0 0.895833 0 0 0 0 0.895833 0 0 0 0.5 0"/>
<feBlend mode="normal" in2="shape" result="effect1_innerShadow_231_16991"/>
<feColorMatrix in="SourceAlpha" type="matrix" values="0 0 0 0 0 0 0 0 0 0 0 0 0 0 0 0 0 0 127 0" result="hardAlpha"/>
<feOffset dx="-5.33333" dy="-5.33333"/>
<feGaussianBlur stdDeviation="5.33333"/>
<feComposite in2="hardAlpha" operator="arithmetic" k2="-1" k3="1"/>
<feColorMatrix type="matrix" values="0 0 0 0 0.894118 0 0 0 0 0.894118 0 0 0 0 0.894118 0 0 0 0.3 0"/>
<feBlend mode="normal" in2="effect1_innerShadow_231_16991" result="effect2_innerShadow_231_16991"/>
</filter>
<linearGradient id="paint0_linear_231_16991" x1="96.4268" y1="16.4147" x2="96.4268" y2="60.1741" gradientUnits="userSpaceOnUse">
<stop stop-color="#2EC4B6"/>
<stop offset="1" stop-color="#2EC4B6"/>
</linearGradient>
<linearGradient id="paint1_linear_231_16991" x1="122.833" y1="9.58905" x2="87.6751" y2="67.8707" gradientUnits="userSpaceOnUse">
<stop stop-color="#B7F5EF" stop-opacity="0"/>
<stop offset="1" stop-color="#88D7CF" stop-opacity="0.7"/>
</linearGradient>
<linearGradient id="paint2_linear_231_16991" x1="93.3198" y1="18.0953" x2="93.3198" y2="64.7022" gradientUnits="userSpaceOnUse">
<stop stop-color="#2EC4B6"/>
<stop offset="1" stop-color="#2EC4B6"/>
</linearGradient>
<linearGradient id="paint3_linear_231_16991" x1="37.576" y1="16.4147" x2="37.576" y2="60.1741" gradientUnits="userSpaceOnUse">
<stop stop-color="#2EC4B6"/>
<stop offset="1" stop-color="#2EC4B6"/>
</linearGradient>
<linearGradient id="paint4_linear_231_16991" x1="11.1666" y1="9.58905" x2="46.3249" y2="67.8707" gradientUnits="userSpaceOnUse">
<stop stop-color="#B7F5EF" stop-opacity="0"/>
<stop offset="1" stop-color="#88D7CF" stop-opacity="0.7"/>
</linearGradient>
<linearGradient id="paint5_linear_231_16991" x1="40.6802" y1="18.0953" x2="40.6802" y2="64.7022" gradientUnits="userSpaceOnUse">
<stop stop-color="#2EC4B6"/>
<stop offset="1" stop-color="#2EC4B6"/>
</linearGradient>
<linearGradient id="paint6_linear_231_16991" x1="37.576" y1="119.025" x2="37.576" y2="75.2659" gradientUnits="userSpaceOnUse">
<stop stop-color="#2EC4B6"/>
<stop offset="1" stop-color="#2EC4B6"/>
</linearGradient>
<linearGradient id="paint7_linear_231_16991" x1="11.1639" y1="125.851" x2="46.3249" y2="67.5693" gradientUnits="userSpaceOnUse">
<stop stop-color="#B7F5EF" stop-opacity="0"/>
<stop offset="1" stop-color="#88D7CF" stop-opacity="0.7"/>
</linearGradient>
<linearGradient id="paint8_linear_231_16991" x1="40.6802" y1="117.345" x2="40.6802" y2="70.7378" gradientUnits="userSpaceOnUse">
<stop stop-color="#2EC4B6"/>
<stop offset="1" stop-color="#2EC4B6"/>
</linearGradient>
<linearGradient id="paint9_linear_231_16991" x1="96.4268" y1="119.025" x2="96.4268" y2="75.2659" gradientUnits="userSpaceOnUse">
<stop stop-color="#2EC4B6"/>
<stop offset="1" stop-color="#2EC4B6"/>
</linearGradient>
<linearGradient id="paint10_linear_231_16991" x1="122.833" y1="125.851" x2="87.6751" y2="67.5693" gradientUnits="userSpaceOnUse">
<stop stop-color="#B7F5EF" stop-opacity="0"/>
<stop offset="1" stop-color="#88D7CF" stop-opacity="0.7"/>
</linearGradient>
<linearGradient id="paint11_linear_231_16991" x1="93.3198" y1="117.345" x2="93.3198" y2="70.7378" gradientUnits="userSpaceOnUse">
<stop stop-color="#2EC4B6"/>
<stop offset="1" stop-color="#2EC4B6"/>
</linearGradient>
<clipPath id="clip0_231_16991">
<rect width="134" height="134" fill="white" transform="translate(0 0.719971)"/>
</clipPath>
</defs>
</svg>
