<svg width="72" height="40" viewBox="0 0 72 40" fill="none" xmlns="http://www.w3.org/2000/svg">
<path d="M9.80254 25.9892C9.27054 25.1996 8.20654 25.1996 7.67454 25.9892L0.332943 37.094C-0.335857 38.1188 0.317743 39.5468 1.44254 39.5468H7.18814C7.62894 39.5468 8.03934 39.3116 8.29774 38.9252L12.7513 32.1716C13.0857 31.6676 13.0857 30.962 12.7513 30.458L9.80254 25.9892Z" fill="black"/>
<path d="M46.5408 9.18913C46.784 8.83632 47.164 8.63472 47.5744 8.63472H52.864C54.004 8.63472 54.5968 10.1131 53.852 11.0539L44.5952 22.6963C43.8656 23.6203 44.4584 25.0651 45.568 25.0651H53.1376C53.5176 25.0651 53.8824 24.8803 54.1256 24.5779L67.2888 8.02993L71.3472 2.92272L71.3624 2.90593C72.1072 1.96513 71.4992 0.486724 70.3744 0.486724H50.28C50.1888 0.469924 50.1128 0.453125 50.0216 0.453125H43.5008C43.1056 0.453125 42.7256 0.654726 42.4672 1.00753L42.4064 1.09153L34.9584 11.4235C34.4264 12.1627 33.4232 12.1627 32.8912 11.4235L29.608 6.87072C29.2432 6.34992 29.228 5.62752 29.5776 5.10672L31.0216 2.92272C31.6904 1.89792 31.0368 0.469926 29.912 0.469926H24.1664C24.136 0.469926 24.1056 0.486724 24.06 0.486724H17.7672C16.6576 0.486724 16.0496 1.89793 16.7336 2.85553L18.8008 5.72833C19.1656 6.24913 19.1808 6.97153 18.8312 7.49233L16.7184 10.6843C16.1864 11.4739 15.1224 11.4739 14.5904 10.6843L8.25202 1.10833L8.22162 1.07472C7.97842 0.705124 7.58322 0.486724 7.15762 0.486724H1.38162C0.241623 0.486724 -0.396777 1.93153 0.272023 2.93953L11.0488 19.2523L11.0336 19.2691L15.624 26.2075L19.1656 31.5499L23.8624 38.6563C23.9536 38.7907 24.06 38.9083 24.1816 38.9923C24.212 39.0091 24.2272 39.0259 24.2576 39.0427C24.3032 39.0763 24.364 39.1099 24.4096 39.1435C24.44 39.1603 24.4704 39.1603 24.4856 39.1771C24.6376 39.2443 24.7896 39.2779 24.9568 39.2779H30.7024C30.7632 39.2779 30.824 39.2779 30.8848 39.2611H60.084C60.7984 39.2611 61.376 38.6227 61.376 37.8331V32.5075C61.376 31.7179 60.7984 31.0795 60.084 31.0795H38.9712C38.4088 31.0795 37.968 30.5755 37.968 29.9707V21.1171M27.784 30.5755L20.868 20.1091C20.5032 19.5715 20.5032 18.8323 20.868 18.2779L23.2088 14.7331C23.7256 13.9603 24.7592 13.9267 25.3064 14.6827L29.2128 20.1091L29.5928 20.6299L29.608 20.6467L29.6232 20.6635L29.6384 20.6803C29.8208 20.9323 29.9272 21.2515 29.9272 21.5875V29.5675C29.9272 30.3739 29.3344 31.0291 28.6048 31.0291C28.2856 31.0291 27.9816 30.8611 27.784 30.5755Z" fill="black"/>
</svg>
